<?xml version="1.0" encoding="utf-8"?>
<!-- Generator: Adobe Illustrator 19.0.0, SVG Export Plug-In . SVG Version: 6.00 Build 0)  -->
<svg version="1.1" id="Layer_1" xmlns="http://www.w3.org/2000/svg" xmlns:xlink="http://www.w3.org/1999/xlink" x="0px" y="0px"
	 viewBox="-227 371 544 260" style="enable-background:new -227 371 544 260;" xml:space="preserve">
<style type="text/css">
	.st0{fill:#F48C99;stroke:#4E4E4E;stroke-width:8;stroke-linecap:round;stroke-linejoin:round;stroke-miterlimit:10;}
	.st1{fill:#CD293A;stroke:#4E4E4E;stroke-width:8;stroke-linecap:round;stroke-linejoin:round;stroke-miterlimit:10;}
	.st2{fill:#F0515F;stroke:#4E4E4E;stroke-width:8;stroke-linecap:round;stroke-linejoin:round;stroke-miterlimit:10;}
	.st3{fill:none;stroke:#4E4E4E;stroke-width:8;stroke-linecap:round;stroke-miterlimit:10;}
	.st4{fill:#4E4E4E;}
	.st5{fill:#F0515F;}
</style>
<path class="st0" d="M120.7,499.7c0,0-44.5-33.7-2.7-54.1l26,35.1l4.3,9.6C148.3,490.3,135.8,485.3,120.7,499.7z"/>
<path class="st1" d="M231.2,446.9c0,0,1.7-55.8-40.4-36.1l10.9,42.3l4.8,9.4C206.5,462.5,210.4,449.7,231.2,446.9z"/>
<path class="st2" d="M129.2,413.8c-38.5,34.8,19.1,76.5,19.1,76.5c8.4-17.7,24.1-24.7,24.1-24.7s15-7.7,34-3.1c0,0,4.7-69-45.7-63
	C149.1,400.9,137.9,405.9,129.2,413.8z"/>
<line class="st3" x1="120.7" y1="499.7" x2="195.3" y2="536.5"/>
<line class="st3" x1="148.3" y1="490.3" x2="195.3" y2="536.5"/>
<line class="st3" x1="231.2" y1="446.9" x2="210.5" y2="524.8"/>
<line class="st3" x1="206.5" y1="462.5" x2="210.5" y2="524.8"/>
<path class="st4" d="M-153.1,556.7c3.6,3.1,5.5,7.9,5.5,14.3c0,6.4-1.9,11.1-5.6,14.1c-3.7,3-9.5,4.5-17.2,4.5h-6.9v14.5H-189v-52
	h18.4C-162.6,552.1-156.8,553.6-153.1,556.7z M-161.7,577.2c1.4-1.6,2.1-3.8,2.1-6.8c0-3-0.9-5.1-2.7-6.4c-1.8-1.3-4.6-1.9-8.4-1.9
	h-6.6v17.5h7.8C-165.7,579.5-163,578.7-161.7,577.2z"/>
<path class="st4" d="M-104.6,604.1l-4.8-11.2h-21.8l-4.8,11.2h-12.4l22.5-52h11.2l22.5,52H-104.6z M-120.3,567.5l-6.5,15.1h13
	L-120.3,567.5z"/>
<path class="st4" d="M-44,569.3c0,8.3-3.3,13.7-9.9,16.1l13.2,18.6H-55l-11.5-16.6h-8v16.6h-11.6v-52h19.7c8.1,0,13.9,1.4,17.3,4.1
	C-45.7,558.9-44,563.3-44,569.3z M-58,575.5c1.4-1.3,2.2-3.3,2.2-6.1c0-2.8-0.7-4.7-2.2-5.8c-1.5-1-4.1-1.6-7.8-1.6h-8.7v15.4h8.5
	C-62.1,577.4-59.4,576.8-58,575.5z"/>
<path class="st4" d="M5,604.1l-4.8-11.2h-21.8l-4.8,11.2h-12.4l22.5-52h11.2l22.5,52H5z M-10.7,567.5l-6.5,15.1h13L-10.7,567.5z"/>
<path class="st4" d="M47.2,593.8c5.7,0,10.4-2.3,14-6.8l7.4,7.7c-5.9,6.6-12.9,10-20.9,10c-8,0-14.6-2.5-19.8-7.6
	c-5.2-5.1-7.8-11.4-7.8-19.2c0-7.7,2.6-14.2,7.9-19.3c5.3-5.2,11.7-7.7,19.4-7.7c8.5,0,15.7,3.3,21.4,9.7l-7.2,8.2
	c-3.7-4.6-8.2-6.8-13.7-6.8c-4.4,0-8.1,1.4-11.2,4.3c-3.1,2.9-4.7,6.7-4.7,11.5c0,4.8,1.5,8.7,4.4,11.6
	C39.5,592.3,43.1,593.8,47.2,593.8z"/>
<path class="st4" d="M110.1,552.1h11.6v52h-11.6v-20.5H89.4v20.5H77.8v-52h11.6v21.7h20.7V552.1z"/>
<path class="st4" d="M148.3,590.6c1.9,2.4,4.5,3.6,7.8,3.6s5.9-1.2,7.8-3.6c1.9-2.4,2.9-5.7,2.9-9.9v-28.7h11.6v29.1
	c0,7.5-2.1,13.3-6.3,17.4c-4.2,4-9.5,6.1-16,6.1c-6.5,0-11.8-2-16-6.1c-4.2-4.1-6.3-9.8-6.3-17.3v-29.1h11.6v28.7
	C145.4,584.9,146.3,588.2,148.3,590.6z"/>
<polygon class="st5" points="215,552 215,535 204,535 204,552 187,552 187,552.1 187,562 187,562 204,562 204,579 215,579 215,562 
	233,562 233,562 233,552.1 233,552 "/>
<path class="st4" d="M279.7,552.1v10.3h-25.9v10.7H277v9.9h-23.3v10.8h26.7v10.3h-38.3v-52H279.7z"/>
</svg>
